<?xml version="1.0" standalone="no"?>
<!DOCTYPE svg PUBLIC "-//W3C//DTD SVG 20010904//EN"
 "http://www.w3.org/TR/2001/REC-SVG-20010904/DTD/svg10.dtd">
<svg version="1.0" xmlns="http://www.w3.org/2000/svg"
 width="160.000000pt" height="160.000000pt" viewBox="0 0 160.000000 160.000000"
 preserveAspectRatio="xMidYMid meet">

<g transform="translate(0.000000,160.000000) scale(0.100000,-0.100000)"
fill="#000000" stroke="none">
<path d="M655 1585 c-281 -52 -512 -249 -607 -517 -147 -416 70 -873 484
-1020 416 -147 873 70 1020 484 94 267 40 568 -141 781 -187 221 -474 325
-756 272z m131 -66 c10 -17 -13 -36 -27 -22 -12 12 -4 33 11 33 5 0 12 -5 16
-11z m50 0 c10 -17 -13 -36 -27 -22 -12 12 -4 33 11 33 5 0 12 -5 16 -11z m44
-15 c0 -8 -7 -14 -15 -14 -15 0 -21 21 -9 33 10 9 24 -2 24 -19z m-190 -4 c0
-21 -15 -27 -25 -10 -7 12 2 30 16 30 5 0 9 -9 9 -20z m50 5 c0 -8 -6 -15 -14
-15 -17 0 -28 14 -19 24 12 12 33 6 33 -9z m186 4 c3 -6 1 -16 -5 -22 -9 -9
-14 -8 -21 3 -9 15 -4 30 10 30 5 0 12 -5 16 -11z m-280 -10 c10 -17 -13 -36
-27 -22 -12 12 -4 33 11 33 5 0 12 -5 16 -11z m330 0 c8 -14 -18 -31 -30 -19
-9 9 0 30 14 30 5 0 12 -5 16 -11z m44 -19 c0 -21 -15 -27 -25 -10 -7 12 2 30
16 30 5 0 9 -9 9 -20z m-420 -5 c0 -8 -7 -15 -15 -15 -8 0 -15 7 -15 15 0 8 7
15 15 15 8 0 15 -7 15 -15z m-44 -6 c10 -17 -13 -36 -27 -22 -12 12 -4 33 11
33 5 0 12 -5 16 -11z m514 -5 c0 -9 -7 -14 -17 -12 -25 5 -28 28 -4 28 12 0
21 -6 21 -16z m-562 -21 c-4 -22 -22 -20 -26 1 -2 10 3 16 13 16 10 0 15 -7
13 -17z m602 2 c0 -8 -7 -15 -15 -15 -8 0 -15 7 -15 15 0 8 7 15 15 15 8 0 15
-7 15 -15z m-642 -28 c2 -10 -3 -17 -12 -17 -10 0 -16 9 -16 21 0 24 23 21 28
-4z m682 8 c0 -8 -7 -15 -15 -15 -8 0 -15 7 -15 15 0 8 7 15 15 15 8 0 15 -7
15 -15z m44 -14 c3 -5 -1 -14 -8 -20 -16 -13 -32 2 -21 19 8 12 22 13 29 1z
m-764 -16 c0 -8 -6 -15 -14 -15 -17 0 -28 14 -19 24 12 12 33 6 33 -9z m-40
-31 c0 -8 -7 -14 -15 -14 -15 0 -21 21 -9 33 10 9 24 -2 24 -19z m338 8 c-21
-2 -28 -9 -28 -24 0 -18 4 -20 32 -14 24 5 29 3 21 -5 -6 -6 -23 -9 -39 -7
-38 4 -47 44 -12 57 13 4 30 6 38 2 10 -4 6 -7 -12 -9z m100 -14 c6 -17 9 -34
5 -37 -3 -3 -8 0 -10 7 -6 15 -43 16 -43 0 0 -6 -3 -8 -6 -5 -10 9 16 67 30
67 6 0 17 -14 24 -32z m50 2 c-4 -24 -1 -30 13 -30 10 0 21 -5 25 -12 5 -8 0
-9 -17 -5 -13 4 -29 7 -36 7 -10 0 -9 18 3 58 7 24 16 11 12 -18z m352 15 c0
-8 -7 -15 -15 -15 -8 0 -15 7 -15 15 0 8 7 15 15 15 8 0 15 -7 15 -15z m-275
-37 c-8 -36 -12 -44 -20 -36 -8 8 7 68 17 68 6 0 7 -14 3 -32z m-605 -4 c0
-16 -16 -19 -25 -4 -8 13 4 32 16 25 5 -4 9 -13 9 -21z m260 18 c0 -5 -10 -14
-22 -21 l-23 -11 23 6 c12 3 22 1 22 -5 0 -6 -4 -11 -9 -11 -5 0 -11 -10 -13
-22 -3 -21 -5 -21 -21 9 -17 32 -17 32 10 47 34 18 33 18 33 8z m430 -24 c0
-5 -9 -4 -20 2 -14 7 -20 7 -20 0 0 -5 5 -10 10 -10 6 0 10 -5 10 -11 0 -5 -5
-7 -10 -4 -6 4 -17 1 -25 -5 -18 -15 -19 -3 -5 34 8 23 12 25 35 14 14 -6 25
-15 25 -20z m230 17 c0 -8 -7 -15 -15 -15 -8 0 -15 7 -15 15 0 8 7 15 15 15 8
0 15 -7 15 -15z m40 -26 c0 -7 7 -17 17 -24 9 -7 13 -17 9 -23 -11 -18 -26
-14 -26 7 0 11 -9 21 -21 24 -12 3 -18 10 -14 16 8 15 35 14 35 0z m-990 -14
c0 -8 -6 -15 -14 -15 -17 0 -28 14 -19 24 12 12 33 6 33 -9z m553 -45 c31 0
38 -3 33 -15 -4 -12 5 -15 49 -15 67 0 74 -20 8 -21 -42 -1 -36 -3 44 -18 86
-16 113 -25 102 -35 -2 -2 -42 2 -88 10 -46 8 -85 13 -87 11 -2 -2 21 -11 51
-21 31 -9 53 -21 50 -26 -3 -4 -33 0 -68 11 -74 23 -76 23 -52 6 10 -8 14 -16
9 -20 -13 -8 -47 20 -39 32 3 6 2 11 -3 11 -5 0 -12 10 -15 22 -4 12 -9 19
-13 16 -3 -4 -1 -21 5 -39 13 -37 14 -34 -18 -44 -20 -6 -23 -4 -18 9 8 21
-20 33 -36 17 -9 -9 -8 -11 6 -6 13 6 17 2 17 -14 0 -24 -13 -27 -32 -8 -7 8
-19 12 -26 9 -14 -4 -15 8 -2 42 8 22 5 28 -20 46 -40 29 -38 40 8 40 33 0 39
4 51 33 l12 32 17 -32 c14 -29 21 -33 55 -33z m229 43 c22 -20 23 -36 3 -53
-12 -10 -20 -9 -40 4 -27 18 -32 35 -13 54 16 16 28 15 50 -5z m-553 -7 c9
-11 10 -20 1 -36 -14 -26 -63 -24 -68 3 -8 39 42 63 67 33z m-266 -13 c9 -9
-13 -34 -24 -27 -14 8 -11 34 4 34 8 0 17 -3 20 -7z m913 -45 c4 -6 0 -16 -9
-23 -10 -7 -17 -17 -17 -24 0 -6 -4 -11 -10 -11 -5 0 -10 12 -10 26 0 21 -3
24 -13 15 -24 -19 -28 2 -6 25 22 24 48 20 65 -8z m174 7 c0 -8 -7 -15 -15
-15 -8 0 -15 7 -15 15 0 8 7 15 15 15 8 0 15 -7 15 -15z m-1117 -10 c1 -5 -6
-11 -15 -13 -11 -2 -18 3 -18 13 0 17 30 18 33 0z m190 -43 c13 -17 0 -29 -15
-14 -7 7 -20 12 -30 12 -10 0 -18 5 -18 11 0 6 9 8 22 4 16 -6 20 -4 15 8 -3
8 -3 18 1 22 4 4 9 -1 11 -12 2 -10 8 -24 14 -31z m27 38 c0 -5 -4 -10 -10
-10 -5 0 -10 5 -10 10 0 6 5 10 10 10 6 0 10 -4 10 -10z m240 -10 c0 -5 7 -10
15 -10 19 0 19 -14 -1 -34 -12 -12 -12 -16 -2 -16 7 -1 3 -9 -11 -21 -26 -22
-41 -18 -21 6 16 19 15 19 -55 -5 -32 -11 -60 -18 -63 -16 -11 11 12 25 60 37
76 18 45 22 -42 5 -46 -9 -79 -11 -84 -5 -6 5 -8 9 -5 9 2 1 45 9 94 19 82 17
86 19 43 20 -70 2 -59 21 12 21 33 0 60 -4 60 -10z m690 -15 c0 -8 -7 -15 -15
-15 -8 0 -15 7 -15 15 0 8 7 15 15 15 8 0 15 -7 15 -15z m-1170 -11 c0 -9 -7
-14 -17 -12 -25 5 -28 28 -4 28 12 0 21 -6 21 -16z m1003 -26 c-5 -27 -3 -31
8 -20 15 14 29 16 29 4 0 -4 -14 -16 -32 -26 l-31 -19 6 37 c5 32 4 36 -9 25
-8 -6 -17 -9 -21 -5 -8 7 27 35 44 36 9 0 11 -10 6 -32z m-859 -1 c-3 -8 2
-20 11 -27 24 -20 17 -32 -10 -14 -13 8 -29 13 -35 9 -16 -10 -12 6 7 27 19
21 35 24 27 5z m1054 1 c-7 -19 -38 -22 -38 -4 0 10 9 16 21 16 12 0 19 -5 17
-12z m-1228 -13 c0 -8 -7 -15 -15 -15 -8 0 -15 7 -15 15 0 8 7 15 15 15 8 0
15 -7 15 -15z m1250 -30 c0 -8 -6 -15 -14 -15 -17 0 -28 14 -19 24 12 12 33 6
33 -9z m-1270 -10 c0 -8 -6 -15 -14 -15 -17 0 -28 14 -19 24 12 12 33 6 33 -9z
m390 -1 c27 -14 42 -15 96 -6 63 10 98 7 122 -11 9 -7 12 -73 12 -269 0 -247
-1 -260 -17 -247 -13 10 -13 8 2 -10 l20 -23 3 276 2 275 38 10 c23 6 54 6 82
1 67 -13 97 -12 115 6 12 13 19 13 30 4 8 -6 18 -9 23 -6 13 8 73 -14 67 -25
-3 -4 -11 -6 -18 -3 -9 3 -12 -7 -9 -36 4 -36 9 -43 53 -68 46 -26 61 -42 39
-42 -6 0 -28 11 -50 25 l-40 25 0 -91 c0 -68 3 -90 13 -86 6 2 11 12 11 21 -1
9 2 16 7 16 5 0 9 -5 9 -10 0 -6 11 -8 27 -4 27 7 26 6 -9 -24 -19 -18 -40
-32 -46 -32 -5 0 -12 -9 -15 -20 -4 -15 0 -20 16 -20 21 -1 21 -1 3 -15 -12
-9 -19 -28 -20 -50 -1 -40 6 -43 34 -15 16 16 18 25 10 40 -12 21 0 33 24 24
16 -6 21 -21 17 -60 -1 -12 6 -24 14 -28 9 -3 13 -11 10 -16 -5 -8 -11 -8 -19
-1 -9 7 -17 2 -29 -19 -10 -16 -26 -32 -37 -35 -19 -6 -26 -30 -22 -77 2 -22
-16 -24 -24 -3 -5 11 -22 15 -70 15 -53 0 -66 3 -76 20 -15 24 -25 26 -25 5 0
-8 6 -16 14 -19 29 -11 14 -54 -32 -92 -42 -34 -51 -37 -105 -36 -72 1 -112
20 -163 79 -26 28 -47 43 -63 43 -24 0 -24 -1 -8 -25 21 -32 9 -50 -16 -25
-23 23 -41 26 -38 8 2 -7 -4 -13 -12 -13 -10 0 -14 9 -13 29 2 29 2 29 -13 8
-19 -28 -39 -29 -24 -2 9 17 7 22 -15 30 -31 12 -42 35 -24 56 11 14 14 13 23
-8 l9 -23 5 25 c2 14 9 29 16 33 6 5 1 6 -11 2 -21 -6 -22 -4 -16 27 3 18 9
35 13 38 3 3 4 16 0 30 -5 23 -8 21 -45 -33 -37 -53 -55 -69 -55 -49 0 14 80
122 91 122 5 0 9 32 9 72 l0 72 -65 -64 c-36 -36 -65 -58 -65 -49 0 18 114
132 123 123 4 -4 7 16 7 44 0 29 -2 52 -5 52 -3 0 -27 -13 -53 -30 -53 -32
-62 -35 -62 -20 0 5 27 24 59 42 56 31 60 35 63 74 3 35 0 40 -14 36 -10 -2
-18 1 -18 7 0 12 44 26 58 17 5 -3 15 1 22 9 15 18 10 18 50 -1z m-200 -36 c0
-12 -8 -10 -35 8 -36 23 -31 39 5 17 17 -9 30 -21 30 -25z m900 22 c-27 -21
-40 -25 -40 -12 0 9 38 30 55 31 6 0 -1 -8 -15 -19z m196 -11 c8 -14 -11 -33
-25 -25 -11 7 -4 36 9 36 5 0 12 -5 16 -11z m-1311 -19 c0 -7 -6 -15 -12 -17
-8 -3 -13 4 -13 17 0 13 5 20 13 18 6 -3 12 -11 12 -18z m176 0 c15 0 10 -46
-6 -60 -9 -8 -15 -9 -15 -2 0 6 5 14 10 17 6 3 10 11 10 17 0 6 -9 3 -20 -7
-15 -13 -24 -15 -31 -8 -16 16 8 56 28 49 8 -3 19 -6 24 -6z m988 -16 c3 -2
-6 -15 -19 -29 -24 -26 -43 -25 -33 1 3 8 -3 22 -13 30 -18 14 -16 15 21 9 22
-4 42 -9 44 -11z m169 -16 c-3 -7 -11 -13 -18 -13 -7 0 -15 6 -17 13 -3 7 4
12 17 12 13 0 20 -5 18 -12z m-1348 -13 c0 -8 -7 -15 -15 -15 -8 0 -15 7 -15
15 0 8 7 15 15 15 8 0 15 -7 15 -15z m1358 -32 c-4 -22 -22 -20 -26 1 -2 10 3
16 13 16 10 0 15 -7 13 -17z m-1372 -4 c3 -6 1 -16 -5 -22 -9 -9 -14 -8 -21 3
-9 15 -4 30 10 30 5 0 12 -5 16 -11z m162 5 c25 -7 30 -24 7 -24 -18 0 -20
-17 -2 -23 23 -8 0 -17 -31 -11 -20 4 -29 11 -26 20 15 50 12 48 52 38z m1032
-14 c0 -5 -4 -10 -10 -10 -5 0 -10 5 -10 10 0 6 5 10 10 10 6 0 10 -4 10 -10z
m190 -35 c0 -8 -7 -15 -15 -15 -8 0 -15 7 -15 15 0 8 7 15 15 15 8 0 15 -7 15
-15z m-1390 -10 c0 -8 -6 -15 -14 -15 -17 0 -28 14 -19 24 12 12 33 6 33 -9z
m1243 -22 c7 -36 2 -43 -34 -43 -18 0 -29 5 -29 14 0 8 -3 21 -6 29 -3 10 2
17 13 20 40 10 51 7 56 -20z m-1114 -30 c0 9 5 17 11 17 5 0 7 -7 4 -15 -4 -8
-1 -15 4 -15 6 0 13 10 15 23 3 16 5 13 6 -10 1 -28 -2 -33 -21 -33 -39 0 -52
15 -43 46 l8 29 7 -30 c4 -16 8 -22 9 -12z m1271 11 c0 -8 -7 -14 -15 -14 -15
0 -21 21 -9 33 10 9 24 -2 24 -19z m-1410 -10 c0 -8 -7 -14 -15 -14 -15 0 -21
21 -9 33 10 9 24 -2 24 -19z m1060 6 c0 -5 -4 -10 -10 -10 -5 0 -10 5 -10 10
0 6 5 10 10 10 6 0 10 -4 10 -10z m60 -20 c0 -5 -4 -10 -10 -10 -5 0 -10 5
-10 10 0 6 5 10 10 10 6 0 10 -4 10 -10z m294 -8 c2 -4 1 -14 -4 -22 -7 -11
-12 -12 -21 -3 -6 6 -8 16 -5 22 8 13 23 14 30 3z m-1418 -13 c8 -14 -18 -31
-30 -19 -9 9 0 30 14 30 5 0 12 -5 16 -11z m1274 -29 c0 -34 -20 -42 -21 -7 0
21 -1 21 -9 2 -7 -17 -9 -17 -9 -2 -1 27 -19 20 -24 -10 -3 -23 -4 -21 -6 10
-1 36 0 37 34 37 32 0 35 -2 35 -30z m-1095 -11 c5 -7 -44 -39 -60 -39 -15 0
-2 19 18 24 l22 7 -22 11 c-13 6 -23 15 -23 19 0 10 58 -9 65 -22z m995 -41
c0 -12 -13 -10 -38 8 -12 8 -22 22 -22 30 0 11 7 9 30 -8 17 -12 30 -25 30
-30z m248 34 c2 -7 -6 -12 -17 -12 -21 0 -27 11 -14 24 9 9 26 2 31 -12z
m-1425 -7 c1 -5 -6 -11 -15 -13 -11 -2 -18 3 -18 13 0 17 30 18 33 0z m1277
-45 c0 -5 -5 -21 -10 -35 -8 -22 -13 -25 -25 -15 -8 6 -19 9 -25 5 -5 -3 -10
-1 -10 4 0 6 5 11 10 11 6 0 10 7 10 15 0 8 -4 15 -10 15 -5 0 -10 4 -10 8 0
4 16 6 35 4 19 -2 35 -8 35 -12z m143 5 c1 -5 -6 -11 -15 -13 -11 -2 -18 3
-18 13 0 17 30 18 33 0z m-1413 -10 c0 -8 -6 -15 -14 -15 -17 0 -28 14 -19 24
12 12 33 6 33 -9z m180 6 c0 -11 -59 -20 -66 -10 -2 4 8 10 23 12 16 2 31 5
36 6 4 0 7 -3 7 -8z m1230 -47 c0 -8 -7 -14 -15 -14 -15 0 -21 21 -9 33 10 9
24 -2 24 -19z m-1410 -10 c0 -16 -16 -19 -25 -4 -8 13 4 32 16 25 5 -4 9 -13
9 -21z m184 14 c-4 -7 -14 -21 -23 -32 -15 -18 -15 -18 6 -12 12 4 24 2 28 -4
3 -5 -2 -10 -14 -10 -10 0 -26 -3 -35 -6 -21 -8 -21 14 1 38 15 17 15 18 -8
18 -19 0 -21 2 -9 10 23 15 63 13 54 -2z m1064 -38 c6 0 12 -4 12 -10 0 -5 -7
-10 -15 -10 -13 0 -14 -4 -5 -20 6 -12 7 -20 1 -20 -5 0 -11 6 -14 13 -3 9 -9
9 -26 -1 -25 -15 -29 2 -3 18 12 8 13 13 5 16 -23 10 -14 27 10 20 12 -3 28
-6 35 -6z m155 3 c9 -9 -13 -34 -24 -27 -14 8 -11 34 4 34 8 0 17 -3 20 -7z
m-1395 -20 c-4 -22 -22 -20 -26 1 -2 10 3 16 13 16 10 0 15 -7 13 -17z m202
-42 c14 -27 14 -29 -20 -46 -20 -10 -30 -12 -30 -4 0 6 9 13 20 16 21 6 27 28
10 38 -5 3 -19 1 -30 -5 -12 -6 -20 -7 -20 -1 0 25 56 27 70 2z m1180 4 c0 -8
-7 -15 -15 -15 -8 0 -15 7 -15 15 0 8 7 15 15 15 8 0 15 -7 15 -15z m-1370
-10 c0 -8 -7 -15 -15 -15 -8 0 -15 7 -15 15 0 8 7 15 15 15 8 0 15 -7 15 -15z
m1184 -26 c24 -11 25 -13 10 -41 -9 -17 -18 -28 -21 -25 -2 3 1 16 7 29 10 19
10 21 -1 11 -18 -18 -34 -16 -19 2 9 11 9 15 1 15 -6 0 -14 -7 -17 -15 -4 -8
-10 -15 -15 -15 -5 0 -3 11 3 25 13 28 17 29 52 14z m172 0 c3 -6 1 -16 -5
-22 -9 -9 -14 -8 -21 3 -9 15 -4 30 10 30 5 0 12 -5 16 -11z m-1340 -10 c10
-17 -13 -36 -27 -22 -12 12 -4 33 11 33 5 0 12 -5 16 -11z m1324 -44 c0 -8 -7
-15 -15 -15 -8 0 -15 7 -15 15 0 8 7 15 15 15 8 0 15 -7 15 -15z m-1307 -10
c1 -5 -6 -11 -15 -13 -11 -2 -18 3 -18 13 0 17 30 18 33 0z m227 -35 c0 -4
-11 -15 -25 -24 -23 -15 -25 -15 -40 6 -22 33 -18 44 6 17 l20 -24 -7 25 c-6
22 -5 23 10 11 9 -8 16 -9 16 -3 0 6 -4 14 -10 17 -5 3 -10 12 -10 18 1 13 40
-30 40 -43z m884 25 c11 -8 17 -18 13 -21 -4 -4 -13 -1 -22 6 -13 11 -19 10
-35 -5 -23 -21 -26 -14 -8 15 15 24 26 25 52 5z m176 -20 c0 -8 -7 -15 -15
-15 -8 0 -15 7 -15 15 0 8 7 15 15 15 8 0 15 -7 15 -15z m-1267 -10 c1 -5 -6
-11 -15 -13 -11 -2 -18 3 -18 13 0 17 30 18 33 0z m224 -37 c-2 -18 3 -23 21
-21 28 3 28 2 -5 -28 -18 -16 -24 -19 -20 -8 7 20 -10 39 -29 32 -19 -7 -18 6
3 29 22 24 33 23 30 -4z m811 -45 c-23 -25 -39 -23 -18 2 10 12 10 18 0 30
-12 14 -15 14 -31 -1 -11 -10 -19 -12 -19 -7 0 6 10 17 23 26 20 14 24 13 45
-6 l22 -21 -22 -23z m212 52 c0 -9 -7 -18 -15 -21 -8 -4 -15 -15 -15 -25 0
-21 -15 -25 -26 -7 -4 6 0 16 9 23 10 7 17 20 17 29 0 9 7 16 15 16 8 0 15 -7
15 -15z m-1220 -10 c0 -8 -9 -15 -20 -15 -20 0 -26 11 -13 23 12 13 33 7 33
-8z m355 -5 c0 -7 -6 -15 -12 -17 -8 -3 -13 4 -13 17 0 13 5 20 13 18 6 -3 12
-11 12 -18z m78 12 c2 7 8 10 12 6 10 -10 -11 -58 -24 -58 -6 0 -7 7 -4 17 4
10 2 14 -5 9 -13 -8 -26 10 -17 24 5 8 11 8 20 0 10 -8 14 -7 18 2z m337 -38
c0 -8 -4 -14 -10 -14 -5 0 -10 9 -10 21 0 11 5 17 10 14 6 -3 10 -13 10 -21z
m220 12 c0 -3 -4 -8 -10 -11 -5 -3 -10 -1 -10 4 0 6 5 11 10 11 6 0 10 -2 10
-4z m-970 -21 c0 -8 -7 -15 -15 -15 -8 0 -15 7 -15 15 0 8 7 15 15 15 8 0 15
-7 15 -15z m260 -12 c0 -3 -8 -15 -17 -25 -14 -15 -15 -21 -4 -27 8 -5 9 -11
4 -14 -6 -4 -21 5 -34 20 -18 20 -20 25 -6 20 11 -4 21 0 29 13 12 19 28 27
28 13z m651 -10 c30 -16 32 -18 12 -21 -12 -2 -24 -11 -26 -20 -3 -11 -5 -7
-6 9 0 14 -6 30 -13 37 -17 17 -7 15 33 -5z m237 -11 c2 -7 -6 -12 -17 -12
-21 0 -27 11 -14 24 9 9 26 2 31 -12z m-1118 -7 c0 -8 -7 -15 -15 -15 -8 0
-15 7 -15 15 0 8 7 15 15 15 8 0 15 -7 15 -15z m550 -15 c0 -11 -4 -20 -10
-20 -5 0 -10 9 -10 20 0 11 5 20 10 20 6 0 10 -9 10 -20z m-520 -26 c0 -8 -7
-14 -15 -14 -15 0 -21 21 -9 33 10 9 24 -2 24 -19z m230 16 c0 -5 -4 -10 -10
-10 -5 0 -10 5 -10 10 0 6 5 10 10 10 6 0 10 -4 10 -10z m570 0 c0 -5 -4 -10
-10 -10 -5 0 -10 5 -10 10 0 6 5 10 10 10 6 0 10 -4 10 -10z m258 -2 c-3 -7
-11 -13 -18 -13 -7 0 -15 6 -17 13 -3 7 4 12 17 12 13 0 20 -5 18 -12z m-40
-35 c-4 -22 -22 -20 -26 1 -2 10 3 16 13 16 10 0 15 -7 13 -17z m-982 -8 c4
-8 12 -15 20 -15 8 0 14 -7 14 -15 0 -8 -7 -15 -15 -15 -8 0 -15 6 -15 14 0 7
-9 16 -21 19 -12 3 -18 10 -14 16 9 16 25 13 31 -4z m364 -9 c0 -20 -11 -46
-19 -46 -4 0 -6 14 -3 30 4 30 22 43 22 16z m75 -26 c-2 -28 -24 -41 -47 -29
-20 11 -16 47 5 61 18 11 44 -9 42 -32z m160 5 c0 -25 -4 -30 -25 -30 -16 0
-26 6 -28 18 -6 30 6 49 30 45 18 -2 23 -10 23 -33z m-275 15 c0 -5 -4 -10
-10 -10 -5 0 -10 5 -10 10 0 6 5 10 10 10 6 0 10 -4 10 -10z m200 1 c0 -5 -10
-7 -22 -5 -23 5 -23 4 0 -6 31 -13 25 -45 -8 -45 -25 0 -37 22 -26 51 6 15 56
20 56 5z m115 -1 c3 -5 1 -10 -4 -10 -6 0 -11 5 -11 10 0 6 2 10 4 10 3 0 8
-4 11 -10z m311 -1 c10 -17 -13 -36 -27 -22 -12 12 -4 33 11 33 5 0 12 -5 16
-11z m-38 -42 c2 -10 -3 -17 -12 -17 -10 0 -16 9 -16 21 0 24 23 21 28 -4z
m-838 -2 c0 -8 -7 -15 -15 -15 -8 0 -15 7 -15 15 0 8 7 15 15 15 8 0 15 -7 15
-15z m800 -20 c0 -8 -7 -15 -15 -15 -8 0 -15 7 -15 15 0 8 7 15 15 15 8 0 15
-7 15 -15z m-760 -10 c0 -8 -7 -15 -15 -15 -8 0 -15 7 -15 15 0 8 7 15 15 15
8 0 15 -7 15 -15z m720 -21 c0 -8 -7 -14 -15 -14 -15 0 -21 21 -9 33 10 9 24
-2 24 -19z m-680 1 c0 -8 -7 -15 -15 -15 -8 0 -15 7 -15 15 0 8 7 15 15 15 8
0 15 -7 15 -15z m38 -22 c-4 -22 -22 -20 -26 1 -2 10 3 16 13 16 10 0 15 -7
13 -17z m602 1 c0 -9 -7 -14 -17 -12 -10 2 -23 -3 -30 -12 -9 -11 -14 -12 -23
-3 -15 14 -4 34 14 27 8 -3 17 -1 21 5 10 17 35 13 35 -5z m-552 -22 c2 -7 -6
-12 -17 -12 -21 0 -27 11 -14 24 9 9 26 2 31 -12z m42 -12 c0 -11 -7 -20 -15
-20 -15 0 -21 21 -8 33 12 13 23 7 23 -13z m418 3 c-4 -22 -22 -20 -26 1 -2
10 3 16 13 16 10 0 15 -7 13 -17z m-42 -4 c10 -17 -13 -36 -27 -22 -12 12 -4
33 11 33 5 0 12 -5 16 -11z m-326 -15 c0 -9 -7 -14 -17 -12 -25 5 -28 28 -4
28 12 0 21 -6 21 -16z m43 1 c8 -18 -11 -31 -25 -17 -11 11 -3 32 12 32 4 0
10 -7 13 -15z m233 4 c10 -17 -13 -36 -27 -22 -12 12 -4 33 11 33 5 0 12 -5
16 -11z m-188 -16 c-4 -22 -22 -20 -26 1 -2 10 3 16 13 16 10 0 15 -7 13 -17z
m45 -14 c-17 -17 -37 -1 -22 17 8 10 15 12 23 4 7 -7 7 -13 -1 -21z m47 11 c0
-21 -15 -27 -25 -10 -7 12 2 30 16 30 5 0 9 -9 9 -20z m48 3 c-4 -22 -22 -20
-26 1 -2 10 3 16 13 16 10 0 15 -7 13 -17z"/>
<path d="M875 1220 c-3 -5 -1 -10 4 -10 6 0 11 5 11 10 0 6 -2 10 -4 10 -3 0
-8 -4 -11 -10z"/>
<path d="M1062 1283 c5 -26 38 -29 38 -4 0 15 -6 21 -21 21 -14 0 -19 -5 -17
-17z"/>
<path d="M502 1287 c-15 -17 0 -39 22 -31 18 7 18 35 0 41 -6 2 -16 -2 -22
-10z"/>
<path d="M1160 1235 c7 -9 15 -13 17 -11 7 7 -7 26 -19 26 -6 0 -6 -6 2 -15z"/>
<path d="M1062 978 c-2 -107 0 -118 17 -128 13 -7 22 -7 26 0 3 5 -3 10 -14
10 -19 0 -21 7 -24 118 l-3 117 -2 -117z"/>
<path d="M1070 831 c0 -3 8 -15 17 -26 14 -18 15 -18 9 -1 -5 15 -2 17 14 13
11 -3 18 -2 15 3 -6 9 -55 20 -55 11z"/>
<path d="M1044 798 c-4 -7 -3 -8 4 -4 8 5 12 -3 12 -23 0 -35 -19 -43 -21 -8
-1 17 -2 18 -6 4 -3 -10 -10 -14 -16 -11 -7 4 -3 -2 8 -13 28 -28 45 -18 45
28 0 38 -12 50 -26 27z"/>
<path d="M876 681 c-4 -5 -1 -20 4 -33 10 -22 10 -22 5 4 -3 16 0 28 8 31 9 4
9 6 0 6 -6 1 -14 -3 -17 -8z"/>
<path d="M503 673 c9 -2 23 -2 30 0 6 3 -1 5 -18 5 -16 0 -22 -2 -12 -5z"/>
<path d="M560 670 c8 -5 20 -10 25 -10 6 0 3 5 -5 10 -8 5 -19 10 -25 10 -5 0
-3 -5 5 -10z"/>
<path d="M978 673 c7 -3 16 -2 19 1 4 3 -2 6 -13 5 -11 0 -14 -3 -6 -6z"/>
<path d="M1057 660 c-3 -11 -1 -20 4 -20 5 0 9 9 9 20 0 11 -2 20 -4 20 -2 0
-6 -9 -9 -20z"/>
<path d="M635 630 c10 -11 20 -20 23 -20 3 0 -3 9 -13 20 -10 11 -20 20 -23
20 -3 0 3 -9 13 -20z"/>
<path d="M853 600 c-13 -10 -18 -22 -13 -29 5 -9 9 -7 12 7 3 12 16 22 29 24
18 2 20 5 9 9 -9 4 -25 -1 -37 -11z"/>
<path d="M910 590 c0 -5 7 -7 15 -4 8 4 15 8 15 10 0 2 -7 4 -15 4 -8 0 -15
-4 -15 -10z"/>
<path d="M551 588 c2 -2 18 -14 34 -28 l30 -25 -24 28 c-14 15 -29 27 -34 27
-6 0 -8 -1 -6 -2z"/>
<path d="M954 578 c-5 -8 -2 -9 10 -5 10 4 27 2 39 -4 21 -10 21 -10 3 5 -24
19 -42 20 -52 4z"/>
<path d="M850 540 c0 -6 7 -10 15 -10 8 0 15 2 15 4 0 2 -7 6 -15 10 -8 3 -15
1 -15 -4z"/>
<path d="M705 530 c3 -5 8 -10 11 -10 2 0 4 5 4 10 0 6 -5 10 -11 10 -5 0 -7
-4 -4 -10z"/>
<path d="M908 523 c7 -3 16 -2 19 1 4 3 -2 6 -13 5 -11 0 -14 -3 -6 -6z"/>
<path d="M755 501 c-18 -7 -17 -9 12 -24 43 -22 92 -21 123 3 l25 20 -30 0
c-16 0 -40 3 -52 6 -19 5 -23 2 -23 -15 0 -13 -4 -19 -11 -16 -6 4 -8 13 -5
21 6 15 -8 17 -39 5z"/>
<path d="M297 1063 c-4 -3 -7 -11 -7 -17 0 -6 5 -5 12 2 6 6 9 14 7 17 -3 3
-9 2 -12 -2z"/>
<path d="M256 981 c-4 -7 -5 -15 -2 -18 9 -9 19 4 14 18 -4 11 -6 11 -12 0z"/>
<path d="M1310 906 c0 -8 5 -18 10 -21 6 -3 10 1 10 9 0 8 -4 18 -10 21 -5 3
-10 -1 -10 -9z"/>
<path d="M1341 904 c0 -11 3 -14 6 -6 3 7 2 16 -1 19 -3 4 -6 -2 -5 -13z"/>
<path d="M1351 724 c0 -11 3 -14 6 -6 3 7 2 16 -1 19 -3 4 -6 -2 -5 -13z"/>
<path d="M720 240 c0 -5 7 -10 16 -10 8 0 12 5 9 10 -3 6 -10 10 -16 10 -5 0
-9 -4 -9 -10z"/>
<path d="M890 269 c0 -5 5 -7 10 -4 6 3 10 8 10 11 0 2 -4 4 -10 4 -5 0 -10
-5 -10 -11z"/>
<path d="M890 240 c0 -5 4 -10 9 -10 6 0 13 5 16 10 3 6 -1 10 -9 10 -9 0 -16
-4 -16 -10z"/>
</g>
</svg>
